<mxfile host="65bd71144e">
    <diagram name="Page-1" id="1ynipb41A76ynrJRXYRH">
        <mxGraphModel dx="1161" dy="547" grid="1" gridSize="10" guides="1" tooltips="1" connect="1" arrows="1" fold="1" page="0" pageScale="1" pageWidth="850" pageHeight="1100" background="#ffffff" math="0" shadow="0">
            <root>
                <mxCell id="0"/>
                <mxCell id="1" parent="0"/>
                <mxCell id="7v6IvsCs5i9A4eFvV6Ky-1" style="edgeStyle=orthogonalEdgeStyle;rounded=0;orthogonalLoop=1;jettySize=auto;html=1;exitX=1;exitY=0.5;exitDx=0;exitDy=0;entryX=0;entryY=0.5;entryDx=0;entryDy=0;endArrow=open;endFill=0;" parent="1" source="7v6IvsCs5i9A4eFvV6Ky-6" target="7v6IvsCs5i9A4eFvV6Ky-9" edge="1">
                    <mxGeometry relative="1" as="geometry"/>
                </mxCell>
                <mxCell id="7v6IvsCs5i9A4eFvV6Ky-2" value="redirects" style="edgeLabel;html=1;align=center;verticalAlign=middle;resizable=0;points=[];" parent="7v6IvsCs5i9A4eFvV6Ky-1" vertex="1" connectable="0">
                    <mxGeometry x="-0.0331" relative="1" as="geometry">
                        <mxPoint as="offset"/>
                    </mxGeometry>
                </mxCell>
                <mxCell id="7v6IvsCs5i9A4eFvV6Ky-3" style="edgeStyle=orthogonalEdgeStyle;rounded=0;orthogonalLoop=1;jettySize=auto;html=1;exitX=0.5;exitY=1;exitDx=0;exitDy=0;entryX=0;entryY=0.5;entryDx=0;entryDy=0;endArrow=open;endFill=0;" parent="1" source="7v6IvsCs5i9A4eFvV6Ky-6" target="7v6IvsCs5i9A4eFvV6Ky-14" edge="1">
                    <mxGeometry relative="1" as="geometry"/>
                </mxCell>
                <mxCell id="7v6IvsCs5i9A4eFvV6Ky-4" value="logs in" style="edgeLabel;html=1;align=center;verticalAlign=middle;resizable=0;points=[];" parent="7v6IvsCs5i9A4eFvV6Ky-3" vertex="1" connectable="0">
                    <mxGeometry x="0.2965" y="2" relative="1" as="geometry">
                        <mxPoint x="13" y="2" as="offset"/>
                    </mxGeometry>
                </mxCell>
                <mxCell id="7v6IvsCs5i9A4eFvV6Ky-5" value="Text" style="edgeLabel;html=1;align=center;verticalAlign=middle;resizable=0;points=[];" parent="7v6IvsCs5i9A4eFvV6Ky-3" vertex="1" connectable="0">
                    <mxGeometry x="-0.9077" y="-4" relative="1" as="geometry">
                        <mxPoint as="offset"/>
                    </mxGeometry>
                </mxCell>
                <mxCell id="7v6IvsCs5i9A4eFvV6Ky-6" value="&lt;p style=&quot;margin:0px;margin-top:4px;text-align:center;&quot;&gt;&lt;b&gt;LoginManager&lt;/b&gt;&lt;/p&gt;&lt;hr&gt;&lt;p style=&quot;margin:0px;margin-top:4px;text-align:center;&quot;&gt;- username: string&lt;/p&gt;&lt;p style=&quot;margin:0px;margin-top:4px;text-align:center;&quot;&gt;- password: string&lt;/p&gt;&lt;hr&gt;&lt;p style=&quot;margin:0px;margin-top:4px;text-align:center;&quot;&gt;+ login()&lt;/p&gt;&lt;p style=&quot;margin:0px;margin-top:4px;text-align:center;&quot;&gt;+ redirect()&lt;/p&gt;&lt;p style=&quot;margin:0px;margin-top:4px;text-align:center;&quot;&gt;&lt;b&gt;&lt;br&gt;&lt;/b&gt;&lt;/p&gt;&lt;p style=&quot;margin:0px;margin-top:4px;text-align:center;&quot;&gt;&lt;b&gt;&lt;br&gt;&lt;/b&gt;&lt;/p&gt;&lt;p style=&quot;margin:0px;margin-top:4px;text-align:center;&quot;&gt;&lt;b&gt;&lt;br&gt;&lt;/b&gt;&lt;/p&gt;&lt;p style=&quot;margin:0px;margin-top:4px;text-align:center;&quot;&gt;&lt;b&gt;&lt;br&gt;&lt;/b&gt;&lt;/p&gt;&lt;p style=&quot;margin:0px;margin-top:4px;text-align:center;&quot;&gt;&lt;b&gt;+&lt;/b&gt;&lt;/p&gt;" style="verticalAlign=top;align=left;overflow=fill;html=1;whiteSpace=wrap;" parent="1" vertex="1">
                    <mxGeometry x="230" y="330" width="140" height="120" as="geometry"/>
                </mxCell>
                <mxCell id="7v6IvsCs5i9A4eFvV6Ky-7" style="edgeStyle=orthogonalEdgeStyle;rounded=0;orthogonalLoop=1;jettySize=auto;html=1;exitX=0.5;exitY=1;exitDx=0;exitDy=0;entryX=0.5;entryY=0;entryDx=0;entryDy=0;dashed=1;dashPattern=8 8;endArrow=open;endFill=0;" parent="1" source="7v6IvsCs5i9A4eFvV6Ky-9" target="7v6IvsCs5i9A4eFvV6Ky-14" edge="1">
                    <mxGeometry relative="1" as="geometry"/>
                </mxCell>
                <mxCell id="7v6IvsCs5i9A4eFvV6Ky-8" value="creates" style="edgeLabel;html=1;align=center;verticalAlign=middle;resizable=0;points=[];" parent="7v6IvsCs5i9A4eFvV6Ky-7" vertex="1" connectable="0">
                    <mxGeometry x="-0.0821" y="-2" relative="1" as="geometry">
                        <mxPoint x="-1" as="offset"/>
                    </mxGeometry>
                </mxCell>
                <mxCell id="7v6IvsCs5i9A4eFvV6Ky-9" value="&lt;p style=&quot;margin:0px;margin-top:4px;text-align:center;&quot;&gt;&lt;b&gt;RegistrationManager&lt;/b&gt;&lt;/p&gt;&lt;hr&gt;&lt;p style=&quot;margin:0px;margin-top:4px;text-align:center;&quot;&gt;- username: string&lt;/p&gt;&lt;p style=&quot;margin:0px;margin-top:4px;text-align:center;&quot;&gt;- password: string&lt;/p&gt;&lt;p style=&quot;margin:0px;margin-top:4px;text-align:center;&quot;&gt;- email: string&lt;/p&gt;&lt;p style=&quot;margin:0px;margin-top:4px;text-align:center;&quot;&gt;- verification_Token: string&lt;/p&gt;&lt;hr&gt;&lt;p style=&quot;margin:0px;margin-top:4px;text-align:center;&quot;&gt;+ register()&lt;/p&gt;&lt;p style=&quot;margin:0px;margin-top:4px;text-align:center;&quot;&gt;+ verifyEmail()&lt;/p&gt;&lt;p style=&quot;margin:0px;margin-top:4px;text-align:center;&quot;&gt;&lt;b&gt;&lt;br&gt;&lt;/b&gt;&lt;/p&gt;" style="verticalAlign=top;align=left;overflow=fill;html=1;whiteSpace=wrap;" parent="1" vertex="1">
                    <mxGeometry x="460" y="310" width="170" height="160" as="geometry"/>
                </mxCell>
                <mxCell id="7v6IvsCs5i9A4eFvV6Ky-10" style="edgeStyle=orthogonalEdgeStyle;rounded=0;orthogonalLoop=1;jettySize=auto;html=1;exitX=0.75;exitY=1;exitDx=0;exitDy=0;entryX=0;entryY=0.75;entryDx=0;entryDy=0;endArrow=none;endFill=0;startFill=0;" parent="1" target="7v6IvsCs5i9A4eFvV6Ky-23" edge="1">
                    <mxGeometry relative="1" as="geometry">
                        <mxPoint x="570" y="720" as="sourcePoint"/>
                        <mxPoint x="620" y="750" as="targetPoint"/>
                        <Array as="points">
                            <mxPoint x="570" y="620"/>
                            <mxPoint x="530" y="620"/>
                            <mxPoint x="530" y="750"/>
                            <mxPoint x="630" y="750"/>
                        </Array>
                    </mxGeometry>
                </mxCell>
                <mxCell id="7v6IvsCs5i9A4eFvV6Ky-11" value="accepts &amp;gt;" style="edgeLabel;html=1;align=center;verticalAlign=middle;resizable=0;points=[];rotation=0;" parent="7v6IvsCs5i9A4eFvV6Ky-10" connectable="0" vertex="1">
                    <mxGeometry x="0.4824" y="-1" relative="1" as="geometry">
                        <mxPoint x="13" y="-1" as="offset"/>
                    </mxGeometry>
                </mxCell>
                <mxCell id="7v6IvsCs5i9A4eFvV6Ky-12" style="edgeStyle=orthogonalEdgeStyle;rounded=0;orthogonalLoop=1;jettySize=auto;html=1;endArrow=open;endFill=0;dashed=1;dashPattern=8 8;elbow=vertical;entryX=-0.007;entryY=0.908;entryDx=0;entryDy=0;entryPerimeter=0;" parent="1" target="7v6IvsCs5i9A4eFvV6Ky-16" edge="1">
                    <mxGeometry relative="1" as="geometry">
                        <mxPoint x="508" y="740" as="sourcePoint"/>
                        <mxPoint x="810" y="890" as="targetPoint"/>
                        <Array as="points">
                            <mxPoint x="508" y="790"/>
                            <mxPoint x="810" y="790"/>
                            <mxPoint x="810" y="779"/>
                        </Array>
                    </mxGeometry>
                </mxCell>
                <mxCell id="7v6IvsCs5i9A4eFvV6Ky-13" value="creates (if role is admin) &amp;gt;" style="edgeLabel;html=1;align=center;verticalAlign=middle;resizable=0;points=[];" parent="7v6IvsCs5i9A4eFvV6Ky-12" connectable="0" vertex="1">
                    <mxGeometry x="0.3936" y="1" relative="1" as="geometry">
                        <mxPoint x="-90" as="offset"/>
                    </mxGeometry>
                </mxCell>
                <mxCell id="7v6IvsCs5i9A4eFvV6Ky-14" value="&lt;p style=&quot;margin:0px;margin-top:4px;text-align:center;&quot;&gt;&lt;b&gt;User&lt;/b&gt;&lt;/p&gt;&lt;hr&gt;&lt;p style=&quot;margin:0px;margin-top:4px;text-align:center;&quot;&gt;&lt;b&gt;-&lt;/b&gt; role_ID: int&lt;/p&gt;&lt;p style=&quot;margin:0px;margin-top:4px;text-align:center;&quot;&gt;- username: string&lt;/p&gt;&lt;p style=&quot;margin:0px;margin-top:4px;text-align:center;&quot;&gt;- first_name: string&lt;/p&gt;&lt;p style=&quot;margin:0px;margin-top:4px;text-align:center;&quot;&gt;- last_name: string&lt;/p&gt;&lt;p style=&quot;margin:0px;margin-top:4px;text-align:center;&quot;&gt;- email: string&lt;/p&gt;&lt;p style=&quot;margin:0px;margin-top:4px;text-align:center;&quot;&gt;- skills: string[]&lt;/p&gt;&lt;p style=&quot;text-align: center; margin: 4px 0px 0px;&quot;&gt;- location: geographic&lt;/p&gt;&lt;p style=&quot;text-align: center; margin: 4px 0px 0px;&quot;&gt;- availability: string[Mon, Tues, Wed...]&lt;/p&gt;&lt;hr style=&quot;text-align: center;&quot;&gt;&lt;div style=&quot;text-align: center;&quot;&gt;+ createProfile()&lt;/div&gt;" style="verticalAlign=top;align=left;overflow=fill;html=1;whiteSpace=wrap;" parent="1" vertex="1">
                    <mxGeometry x="450" y="510" width="160" height="220" as="geometry"/>
                </mxCell>
                <mxCell id="7v6IvsCs5i9A4eFvV6Ky-15" style="edgeStyle=orthogonalEdgeStyle;rounded=0;orthogonalLoop=1;jettySize=auto;html=1;exitX=0.5;exitY=1;exitDx=0;exitDy=0;entryX=1;entryY=0.5;entryDx=0;entryDy=0;endArrow=open;endFill=0;" parent="1" source="7v6IvsCs5i9A4eFvV6Ky-16" target="7v6IvsCs5i9A4eFvV6Ky-32" edge="1">
                    <mxGeometry relative="1" as="geometry"/>
                </mxCell>
                <mxCell id="7v6IvsCs5i9A4eFvV6Ky-16" value="&lt;p style=&quot;margin:0px;margin-top:4px;text-align:center;&quot;&gt;&lt;b&gt;Event&lt;/b&gt;&lt;/p&gt;&lt;hr&gt;&lt;p style=&quot;margin:0px;margin-top:4px;text-align:center;&quot;&gt;- name: string&lt;/p&gt;&lt;p style=&quot;margin:0px;margin-top:4px;text-align:center;&quot;&gt;- moderator: int&lt;/p&gt;&lt;p style=&quot;margin:0px;margin-top:4px;text-align:center;&quot;&gt;- description: string&lt;/p&gt;&lt;p style=&quot;margin:0px;margin-top:4px;text-align:center;&quot;&gt;&lt;span style=&quot;background-color: transparent; color: light-dark(rgb(0, 0, 0), rgb(255, 255, 255));&quot;&gt;- date: timestamp&lt;/span&gt;&lt;/p&gt;&lt;p style=&quot;margin:0px;margin-top:4px;text-align:center;&quot;&gt;- skills: string[]&lt;/p&gt;&lt;p style=&quot;margin:0px;margin-top:4px;text-align:center;&quot;&gt;- urgency: string[Low, Med, High]&lt;/p&gt;" style="verticalAlign=top;align=left;overflow=fill;html=1;whiteSpace=wrap;" parent="1" vertex="1">
                    <mxGeometry x="840" y="650" width="140" height="160" as="geometry"/>
                </mxCell>
                <mxCell id="7v6IvsCs5i9A4eFvV6Ky-17" style="edgeStyle=orthogonalEdgeStyle;rounded=0;orthogonalLoop=1;jettySize=auto;html=1;exitX=0.5;exitY=0;exitDx=0;exitDy=0;entryX=1;entryY=0.5;entryDx=0;entryDy=0;endArrow=none;startFill=0;" parent="1" source="7v6IvsCs5i9A4eFvV6Ky-20" target="7v6IvsCs5i9A4eFvV6Ky-16" edge="1">
                    <mxGeometry relative="1" as="geometry"/>
                </mxCell>
                <mxCell id="7v6IvsCs5i9A4eFvV6Ky-18" value="takes place at &amp;gt;" style="edgeLabel;html=1;align=center;verticalAlign=middle;resizable=0;points=[];" parent="7v6IvsCs5i9A4eFvV6Ky-17" vertex="1" connectable="0">
                    <mxGeometry x="0.0375" relative="1" as="geometry">
                        <mxPoint x="-10" as="offset"/>
                    </mxGeometry>
                </mxCell>
                <mxCell id="7v6IvsCs5i9A4eFvV6Ky-19" style="edgeStyle=orthogonalEdgeStyle;rounded=0;orthogonalLoop=1;jettySize=auto;html=1;exitX=1;exitY=0.5;exitDx=0;exitDy=0;entryX=1;entryY=0.5;entryDx=0;entryDy=0;endArrow=none;startFill=0;startArrow=none;" parent="1" source="7v6IvsCs5i9A4eFvV6Ky-20" target="7v6IvsCs5i9A4eFvV6Ky-35" edge="1">
                    <mxGeometry relative="1" as="geometry"/>
                </mxCell>
                <mxCell id="7v6IvsCs5i9A4eFvV6Ky-20" value="&lt;p style=&quot;margin:0px;margin-top:4px;text-align:center;&quot;&gt;&lt;b&gt;Location&lt;/b&gt;&lt;/p&gt;&lt;hr&gt;&lt;p style=&quot;margin:0px;margin-top:4px;text-align:center;&quot;&gt;- location: geographic&lt;/p&gt;" style="verticalAlign=top;align=left;overflow=fill;html=1;whiteSpace=wrap;" parent="1" vertex="1">
                    <mxGeometry x="960" y="820" width="140" height="60" as="geometry"/>
                </mxCell>
                <mxCell id="7v6IvsCs5i9A4eFvV6Ky-21" style="edgeStyle=orthogonalEdgeStyle;rounded=0;orthogonalLoop=1;jettySize=auto;html=1;exitX=0.5;exitY=0;exitDx=0;exitDy=0;entryX=0.5;entryY=1;entryDx=0;entryDy=0;endArrow=none;endFill=1;endSize=9;startFill=0;" parent="1" source="7v6IvsCs5i9A4eFvV6Ky-23" target="7v6IvsCs5i9A4eFvV6Ky-35" edge="1">
                    <mxGeometry relative="1" as="geometry"/>
                </mxCell>
                <mxCell id="7v6IvsCs5i9A4eFvV6Ky-22" value="*" style="edgeLabel;html=1;align=center;verticalAlign=middle;resizable=0;points=[];" parent="7v6IvsCs5i9A4eFvV6Ky-21" connectable="0" vertex="1">
                    <mxGeometry x="-0.932" y="1" relative="1" as="geometry">
                        <mxPoint as="offset"/>
                    </mxGeometry>
                </mxCell>
                <mxCell id="7v6IvsCs5i9A4eFvV6Ky-23" value="&lt;p style=&quot;margin:0px;margin-top:4px;text-align:center;&quot;&gt;&lt;b&gt;Task&lt;/b&gt;&lt;/p&gt;&lt;hr&gt;&lt;p style=&quot;margin:0px;margin-top:4px;text-align:center;&quot;&gt;- Event_ID: int&lt;/p&gt;&lt;p style=&quot;margin:0px;margin-top:4px;text-align:center;&quot;&gt;- Task_ID: int&lt;/p&gt;&lt;p style=&quot;margin:0px;margin-top:4px;text-align:center;&quot;&gt;- Skill: string[]&lt;/p&gt;" style="verticalAlign=top;align=left;overflow=fill;html=1;whiteSpace=wrap;" parent="1" vertex="1">
                    <mxGeometry x="630" y="685" width="140" height="90" as="geometry"/>
                </mxCell>
                <mxCell id="7v6IvsCs5i9A4eFvV6Ky-24" style="edgeStyle=orthogonalEdgeStyle;rounded=0;orthogonalLoop=1;jettySize=auto;html=1;exitX=0.5;exitY=1;exitDx=0;exitDy=0;entryX=0.5;entryY=1;entryDx=0;entryDy=0;endArrow=open;endFill=0;" parent="1" source="7v6IvsCs5i9A4eFvV6Ky-25" target="7v6IvsCs5i9A4eFvV6Ky-32" edge="1">
                    <mxGeometry relative="1" as="geometry"/>
                </mxCell>
                <mxCell id="7v6IvsCs5i9A4eFvV6Ky-25" value="&lt;p style=&quot;margin:0px;margin-top:4px;text-align:center;&quot;&gt;&lt;b&gt;Volunteer_History&lt;/b&gt;&lt;/p&gt;&lt;hr&gt;&lt;p style=&quot;margin:0px;margin-top:4px;text-align:center;&quot;&gt;- U_Task_ID: int&lt;/p&gt;&lt;p style=&quot;margin:0px;margin-top:4px;text-align:center;&quot;&gt;- Start_Time: timestamp&lt;/p&gt;&lt;p style=&quot;margin:0px;margin-top:4px;text-align:center;&quot;&gt;- End_Time: timestamp&lt;/p&gt;" style="verticalAlign=top;align=left;overflow=fill;html=1;whiteSpace=wrap;" parent="1" vertex="1">
                    <mxGeometry x="1150" y="540" width="140" height="90" as="geometry"/>
                </mxCell>
                <mxCell id="7v6IvsCs5i9A4eFvV6Ky-26" style="edgeStyle=orthogonalEdgeStyle;rounded=0;orthogonalLoop=1;jettySize=auto;html=1;exitX=1;exitY=0.5;exitDx=0;exitDy=0;endArrow=diamondThin;endFill=1;endSize=9;entryX=0;entryY=0.5;entryDx=0;entryDy=0;" parent="1" source="7v6IvsCs5i9A4eFvV6Ky-23" target="7v6IvsCs5i9A4eFvV6Ky-16" edge="1">
                    <mxGeometry relative="1" as="geometry">
                        <mxPoint x="450" y="800" as="targetPoint"/>
                    </mxGeometry>
                </mxCell>
                <mxCell id="7v6IvsCs5i9A4eFvV6Ky-27" value="*" style="edgeLabel;html=1;align=center;verticalAlign=middle;resizable=0;points=[];" parent="7v6IvsCs5i9A4eFvV6Ky-26" vertex="1" connectable="0">
                    <mxGeometry x="-0.8957" relative="1" as="geometry">
                        <mxPoint as="offset"/>
                    </mxGeometry>
                </mxCell>
                <mxCell id="7v6IvsCs5i9A4eFvV6Ky-28" value="1" style="edgeLabel;html=1;align=center;verticalAlign=middle;resizable=0;points=[];" parent="7v6IvsCs5i9A4eFvV6Ky-26" vertex="1" connectable="0">
                    <mxGeometry x="0.7642" y="-1" relative="1" as="geometry">
                        <mxPoint x="-3" y="-1" as="offset"/>
                    </mxGeometry>
                </mxCell>
                <mxCell id="7v6IvsCs5i9A4eFvV6Ky-29" style="edgeStyle=orthogonalEdgeStyle;rounded=0;orthogonalLoop=1;jettySize=auto;html=1;" parent="1" source="7v6IvsCs5i9A4eFvV6Ky-30" target="7v6IvsCs5i9A4eFvV6Ky-14" edge="1">
                    <mxGeometry relative="1" as="geometry">
                        <mxPoint x="640" y="551" as="targetPoint"/>
                        <Array as="points">
                            <mxPoint x="720" y="537"/>
                        </Array>
                    </mxGeometry>
                </mxCell>
                <mxCell id="7v6IvsCs5i9A4eFvV6Ky-30" value="&lt;p style=&quot;margin:0px;margin-top:4px;text-align:center;&quot;&gt;&lt;b&gt;Role&lt;/b&gt;&lt;/p&gt;&lt;hr&gt;&lt;p style=&quot;margin:0px;margin-top:4px;text-align:center;&quot;&gt;- role: string[Volunteer, Admin]&lt;/p&gt;" style="verticalAlign=top;align=left;overflow=fill;html=1;whiteSpace=wrap;" parent="1" vertex="1">
                    <mxGeometry x="650" y="350" width="140" height="60" as="geometry"/>
                </mxCell>
                <mxCell id="7v6IvsCs5i9A4eFvV6Ky-31" style="edgeStyle=orthogonalEdgeStyle;rounded=0;orthogonalLoop=1;jettySize=auto;html=1;exitX=0;exitY=0.5;exitDx=0;exitDy=0;entryX=0.25;entryY=1;entryDx=0;entryDy=0;endArrow=open;endFill=0;" parent="1" source="7v6IvsCs5i9A4eFvV6Ky-32" target="7v6IvsCs5i9A4eFvV6Ky-14" edge="1">
                    <mxGeometry relative="1" as="geometry"/>
                </mxCell>
                <mxCell id="7v6IvsCs5i9A4eFvV6Ky-32" value="&lt;p style=&quot;margin:0px;margin-top:4px;text-align:center;&quot;&gt;&lt;b&gt;Matcher&lt;/b&gt;&lt;/p&gt;&lt;hr&gt;&lt;p style=&quot;margin:0px;margin-top:4px;text-align:center;&quot;&gt;+ matchVoltoEvent()&lt;/p&gt;&lt;p style=&quot;margin:0px;margin-top:4px;text-align:center;&quot;&gt;+ suggestEvent()&lt;/p&gt;" style="verticalAlign=top;align=left;overflow=fill;html=1;whiteSpace=wrap;" parent="1" vertex="1">
                    <mxGeometry x="540" y="820" width="140" height="70" as="geometry"/>
                </mxCell>
                <mxCell id="7v6IvsCs5i9A4eFvV6Ky-33" style="edgeStyle=orthogonalEdgeStyle;rounded=0;orthogonalLoop=1;jettySize=auto;html=1;exitX=0;exitY=0.5;exitDx=0;exitDy=0;entryX=1;entryY=0.75;entryDx=0;entryDy=0;endArrow=open;endFill=0;" parent="1" source="7v6IvsCs5i9A4eFvV6Ky-35" target="7v6IvsCs5i9A4eFvV6Ky-14" edge="1">
                    <mxGeometry relative="1" as="geometry"/>
                </mxCell>
                <mxCell id="7v6IvsCs5i9A4eFvV6Ky-34" style="edgeStyle=orthogonalEdgeStyle;rounded=0;orthogonalLoop=1;jettySize=auto;html=1;exitX=0.5;exitY=0;exitDx=0;exitDy=0;entryX=0.5;entryY=0;entryDx=0;entryDy=0;endArrow=none;startFill=0;" parent="1" source="7v6IvsCs5i9A4eFvV6Ky-35" target="7v6IvsCs5i9A4eFvV6Ky-25" edge="1">
                    <mxGeometry relative="1" as="geometry"/>
                </mxCell>
                <mxCell id="7v6IvsCs5i9A4eFvV6Ky-35" value="" style="rhombus;whiteSpace=wrap;html=1;" parent="1" vertex="1">
                    <mxGeometry x="730" y="530" width="80" height="80" as="geometry"/>
                </mxCell>
            </root>
        </mxGraphModel>
    </diagram>
</mxfile>